<svg data-v-423bf9ae="" xmlns="http://www.w3.org/2000/svg" viewBox="0 0 408 111" class="iconLeft"><!----><!----><!----><g data-v-423bf9ae="" id="ba0c35c2-1b63-4c55-a8d0-a369a9eb9a80" fill="black" transform="matrix(6.1224488604322,0,0,6.1224488604322,89.81199005016535,20.973572453152677)"><path d="M4.82 0.70L4.82 0.70L5.14 0.70L5.10 1.04L3.51 10.28L3.49 10.50L3.25 10.50L1.90 10.50L1.67 10.50L1.62 10.28L0.06 1.04L0 0.70L0.34 0.70L1.33 0.70L1.57 0.70L1.61 0.94L2.58 7.60L3.54 0.94L3.58 0.70L3.82 0.70L4.82 0.70ZM7.48 10.50L7.48 10.50L5.94 10.50L5.94 0.70L7.48 0.70L7.48 10.50ZM12.32 1.16L12.32 1.16Q12.66 1.57 12.66 2.07L12.66 2.07L12.66 3.12L12.66 3.40L12.38 3.40L11.40 3.40L11.12 3.40L11.12 3.12L11.12 2.23L9.94 2.23L9.94 3.98L9.94 4.05L11.26 4.05Q11.84 4.05 12.25 4.45Q12.66 4.86 12.66 5.45L12.66 5.45L12.66 6.85L12.66 9.11Q12.66 9.62 12.32 10.02L12.32 10.02Q11.98 10.40 11.48 10.49L11.48 10.49L11.45 10.50L11.44 10.50L9.60 10.50L9.59 10.50L9.56 10.49Q9.06 10.40 8.72 10.02L8.72 10.02Q8.39 9.62 8.39 9.11L8.39 9.11L8.39 8.06L8.39 7.78L8.67 7.78L9.66 7.78L9.94 7.78L9.94 8.06L9.94 8.96L11.12 8.96L11.12 5.60L9.79 5.60Q9.20 5.60 8.79 5.19Q8.39 4.79 8.39 4.20L8.39 4.20L8.39 4.10L8.39 3.98L8.39 2.07Q8.39 1.57 8.72 1.16L8.72 1.16Q9.06 0.78 9.56 0.70L9.56 0.70L9.59 0.70L9.60 0.70L11.44 0.70L11.45 0.70L11.48 0.70Q11.98 0.78 12.32 1.16ZM15.11 10.50L15.11 10.50L13.57 10.50L13.57 0.70L15.11 0.70L15.11 10.50ZM16.94 0.70L19.53 0.70Q19.92 0.77 20.19 1.08Q20.45 1.40 20.45 1.81L20.45 1.81L20.45 2.86L20.45 3.28L20.45 3.30L20.45 8.36L20.45 9.41Q20.45 9.81 20.19 10.12Q19.92 10.43 19.53 10.50L19.53 10.50L16.94 10.50Q16.55 10.43 16.28 10.12Q16.02 9.81 16.02 9.41L16.02 9.41L16.02 1.81Q16.02 1.40 16.28 1.08Q16.55 0.77 16.94 0.70L16.94 0.70ZM18.91 3.30L18.91 3.28L18.91 2.86L18.91 2.24L17.56 2.24L17.56 8.97L18.91 8.97L18.91 8.36L18.91 3.30ZM24.86 0.70L24.86 0.70L25.84 0.70L25.84 0.70L25.84 10.50L25.84 10.50L24.30 10.50L24.30 10.50L22.90 6.12L22.90 10.50L22.90 10.50L21.36 10.50L21.36 0.70L21.92 0.70L21.92 0.70L22.90 0.70L22.90 0.70L22.90 0.73L24.30 5.35L24.30 0.70L24.86 0.70L24.86 0.70ZM30.27 0.70L30.27 0.70Q30.67 0.77 30.94 1.08Q31.21 1.39 31.21 1.81L31.21 1.81L31.21 2.84L31.21 3.29L29.67 3.29L29.67 2.84L29.67 2.23L28.29 2.23L28.29 8.97L29.67 8.97L29.67 8.34L29.67 7.90L31.21 7.90L31.21 8.34L31.21 9.39Q31.21 9.81 30.94 10.12Q30.67 10.43 30.27 10.50L30.27 10.50L27.69 10.50Q27.29 10.43 27.02 10.12Q26.75 9.81 26.75 9.39L26.75 9.39L26.75 1.81Q26.75 1.39 27.02 1.08Q27.29 0.77 27.69 0.70L27.69 0.70L30.27 0.70ZM35.01 0.70L35.01 0.70L36.55 0.70L36.55 10.50L35.01 10.50L35.01 5.60L33.66 5.60L33.66 10.50L32.12 10.50L32.12 4.06L33.64 4.06L32.12 1.02L32.12 0.70L33.66 0.70L33.66 4.06L35.01 4.06L35.01 0.70ZM39.00 0.70L39.00 0.70L41.47 0.70L41.47 1.68L41.47 2.24L39.00 2.24L39.00 4.07L40.96 4.07L40.96 4.35L40.96 5.33L40.96 5.61L39.00 5.61L39.00 8.96L41.47 8.96L41.47 9.52L41.47 10.50L39.00 10.50L37.46 10.50L37.46 9.48L37.46 4.07L39.00 4.07L37.46 1.04L37.46 0.70L39.00 0.70ZM46.31 1.16L46.31 1.16Q46.65 1.57 46.65 2.07L46.65 2.07L46.65 3.12L46.65 3.40L46.37 3.40L45.39 3.40L45.11 3.40L45.11 3.12L45.11 2.23L43.93 2.23L43.93 3.98L43.93 4.05L45.25 4.05Q45.84 4.05 46.24 4.45Q46.65 4.86 46.65 5.45L46.65 5.45L46.65 6.85L46.65 9.11Q46.65 9.62 46.31 10.02L46.31 10.02Q45.98 10.40 45.47 10.49L45.47 10.49L45.44 10.50L45.43 10.50L43.60 10.50L43.58 10.50L43.55 10.49Q43.05 10.40 42.71 10.02L42.71 10.02Q42.38 9.62 42.38 9.11L42.38 9.11L42.38 8.06L42.38 7.78L42.66 7.78L43.65 7.78L43.93 7.78L43.93 8.06L43.93 8.96L45.11 8.96L45.11 5.60L43.78 5.60Q43.19 5.60 42.78 5.19Q42.38 4.79 42.38 4.20L42.38 4.20L42.38 4.10L42.38 3.98L42.38 2.07Q42.38 1.57 42.71 1.16L42.71 1.16Q43.05 0.78 43.55 0.70L43.55 0.70L43.58 0.70L43.60 0.70L45.43 0.70L45.44 0.70L45.47 0.70Q45.98 0.78 46.31 1.16ZM51.49 1.16L51.49 1.16Q51.83 1.57 51.83 2.07L51.83 2.07L51.83 3.12L51.83 3.40L51.55 3.40L50.57 3.40L50.29 3.40L50.29 3.12L50.29 2.23L49.11 2.23L49.11 3.98L49.11 4.05L50.43 4.05Q51.02 4.05 51.42 4.45Q51.83 4.86 51.83 5.45L51.83 5.45L51.83 6.85L51.83 9.11Q51.83 9.62 51.49 10.02L51.49 10.02Q51.16 10.40 50.65 10.49L50.65 10.49L50.62 10.50L50.61 10.50L48.78 10.50L48.76 10.50L48.73 10.49Q48.23 10.40 47.89 10.02L47.89 10.02Q47.56 9.62 47.56 9.11L47.56 9.11L47.56 8.06L47.56 7.78L47.84 7.78L48.83 7.78L49.11 7.78L49.11 8.06L49.11 8.96L50.29 8.96L50.29 5.60L48.96 5.60Q48.37 5.60 47.96 5.19Q47.56 4.79 47.56 4.20L47.56 4.20L47.56 4.10L47.56 3.98L47.56 2.07Q47.56 1.57 47.89 1.16L47.89 1.16Q48.23 0.78 48.73 0.70L48.73 0.70L48.76 0.70L48.78 0.70L50.61 0.70L50.62 0.70L50.65 0.70Q51.16 0.78 51.49 1.16Z"></path></g><!----><g data-v-423bf9ae="" id="5bcf7deb-ac9c-4ce5-8732-db11c849f4a2" transform="matrix(1.1081444634331596,0,0,1.1081444634331596,-19.906669403787234,0.7263299535311347)" stroke="none" fill="black"><path d="M77.393 82.291h-3.195a2.168 2.168 0 000-4.336h-1.676c-.383-4.032.395-7.485 1.139-10.465 1.016-4.065 4.473-13.756 5.082-15.789.609-2.032 4.742-12.197-.949-27.309S56.854 6.368 56.854 6.368L50.144.133 50.11 6.3c-4.217.61-5.793 1.626-5.793 1.626l1.017 3.863-9.351 2.507-.61 3.93-15.721 14.569c1.017 3.593-1.152 6.574-1.152 6.574l3.592 4.133c.95-.204 2.711.406 2.711.406 3.116 1.355 8.131 0 10.571-2.845 2.438-2.846 5.422-2.168 8.809-.813 3.389 1.354 9.895-.272 9.895-.272S40.659 53.397 36.05 63.425c-2.562 5.577-2.525 10.901-1.989 14.53h-2.088a2.168 2.168 0 000 4.336h-3.196a4.11 4.11 0 00-4.109 4.108v9.359a4.11 4.11 0 004.109 4.108h48.615a4.108 4.108 0 004.107-4.108v-9.359a4.106 4.106 0 00-4.106-4.108z"></path></g><!----></svg>