<svg xmlns="http://www.w3.org/2000/svg" xmlns:xlink="http://www.w3.org/1999/xlink" version="1.0" x="0px" y="0px" viewBox="0 0 100 100" enable-background="new 0 0 100 100" xml:space="preserve"><circle cx="50" cy="18.2802124" r="13.5302944"></circle><path d="M81.1428375,89.9368591c0,2.8453217-2.305748,5.1510696-5.1510696,5.1510696H24.0082321  c-2.8453197,0-5.1510658-2.305748-5.1510658-5.1510696l0,0c0-2.8446579,2.3057461-5.151062,5.1510658-5.151062h51.9835358  C78.8370895,84.7857971,81.1428375,87.0922012,81.1428375,89.9368591L81.1428375,89.9368591z"></path><path d="M69.0461197,50.0055809c0,2.122776-1.7213211,3.8434372-3.8459396,3.8434372H34.7971878  c-2.1221161,0-3.8434353-1.7206612-3.8434353-3.8434372l0,0c0-2.1233025,1.7213192-3.8439636,3.8434353-3.8439636h30.4029922  C67.3247986,46.1616173,69.0461197,47.8822784,69.0461197,50.0055809L69.0461197,50.0055809z"></path><path d="M70.9679031,39.2159691c0,2.1221161-1.7213211,3.8427773-3.8447571,3.8427773h-34.247612  c-2.1221161,0-3.8434353-1.7206612-3.8434353-3.8427773l0,0c0-2.1239624,1.7213192-3.8446236,3.8434353-3.8446236h34.247612  C69.246582,35.3713455,70.9679031,37.0920067,70.9679031,39.2159691L70.9679031,39.2159691z"></path><path d="M27.8849487,81.8620834c11.9953003-8.3856125,8.4562454-24.82798,8.4562454-24.82798h27.0592728  c0,0-2.6384087,16.1135178,8.7144547,24.82798H27.8849487z"></path></svg>